<svg xmlns="http://www.w3.org/2000/svg" xmlns:xlink="http://www.w3.org/1999/xlink" width="20" height="20" viewBox="0 0 20 20"><defs><clipPath id="b"><rect width="20" height="20"/></clipPath></defs><g id="a" clip-path="url(#b)"><g transform="translate(-0.123 0.178)"><g transform="translate(0.52 0.219)"><g transform="translate(0.458 0.458)"><path d="M11.831,20.676a9.145,9.145,0,1,1,9.146-9.145A9.156,9.156,0,0,1,11.831,20.676Z" transform="translate(-2.685 -2.385)" fill="#85ea2d"/></g><path d="M9.9.915A8.688,8.688,0,1,1,1.216,9.6,8.688,8.688,0,0,1,9.9.915M9.9,0a9.6,9.6,0,1,0,9.6,9.6A9.614,9.614,0,0,0,9.9,0Z" transform="translate(-0.301)" fill="#173647"/><path d="M22.165,26.263c-.03.329.011.668-.011,1a8.184,8.184,0,0,1-.133.99,1.83,1.83,0,0,1-.786,1.119,2.378,2.378,0,0,1,.923,2.1c.026.432.015.868.059,1.3.033.332.162.417.506.428.14,0,.284,0,.447,0v1.027c-1.015.174-1.854-.114-2.061-.975a5.9,5.9,0,0,1-.126-.96c-.022-.343.015-.687-.011-1.03-.074-.942-.2-1.259-1.1-1.3V28.786a1.779,1.779,0,0,1,.2-.033c.495-.026.705-.177.812-.665a5.625,5.625,0,0,0,.092-.831,15.809,15.809,0,0,1,.114-1.614,1.317,1.317,0,0,1,1.389-1.178c.222-.011.447,0,.7,0v1.049c-.107.007-.2.022-.3.022C22.247,25.514,22.213,25.732,22.165,26.263Zm1.23,2.43H23.38a.675.675,0,0,0-.067,1.348h.044a.665.665,0,0,0,.7-.624V29.38A.676.676,0,0,0,23.4,28.693Zm2.315,0a.647.647,0,0,0-.668.624.343.343,0,0,0,0,.063.633.633,0,0,0,.687.661.627.627,0,0,0,.661-.683A.635.635,0,0,0,25.711,28.693Zm2.371,0a.69.69,0,0,0-.7.668.678.678,0,0,0,.679.679h.007a.672.672,0,0,0,.705-.665A.686.686,0,0,0,28.081,28.693Zm3.253.055a.681.681,0,0,1-.75-.569,4.117,4.117,0,0,1-.122-.794c-.03-.495-.026-.993-.059-1.488-.078-1.174-.927-1.584-2.16-1.381v1.019c.2,0,.347,0,.5,0,.262,0,.462.1.487.4.026.266.026.535.052.805.052.536.081,1.078.174,1.606a1.673,1.673,0,0,0,.753,1.027,2.062,2.062,0,0,0-.879,1.773c-.018.484-.03.971-.055,1.459-.022.443-.177.587-.624.6-.126,0-.247.015-.388.022v1.045c.262,0,.5.015.742,0a1.306,1.306,0,0,0,1.344-1.13,9.422,9.422,0,0,0,.111-1.2c.026-.369.022-.742.059-1.108a.814.814,0,0,1,.89-.846.775.775,0,0,0,.159-.037V28.775C31.472,28.763,31.4,28.752,31.335,28.749Z" transform="translate(-16.118 -19.765)" fill="#173647"/></g></g></g></svg>